<svg xmlns="http://www.w3.org/2000/svg" viewBox="0 0 452.59 697.91">
  <defs>
    <style>
      .cls-1, .cls-4 {
        fill: none;
      }

      .cls-2 {
        fill: #fff;
      }

      .cls-3 {
        fill: #254441;
      }

      .cls-4 {
        stroke: #000;
        stroke-linecap: round;
        stroke-linejoin: round;
        stroke-width: 0;
      }

      .cls-5 {
        fill: #e8fcc2;
      }
    </style>
  </defs>
  <title>Logo-iso</title>
  <g id="Layer_2" data-name="Layer 2">
    <g id="Layer_1-2" data-name="Layer 1">
      <g>
        <path class="cls-1" d="M165.44,427.08a68.47,68.47,0,0,0-1.71-14,68.47,68.47,0,0,1,1.71,14Z"/>
        <path class="cls-1" d="M162.88,409.76c.31,1.09.58,2.18.84,3.28C163.46,411.94,163.19,410.85,162.88,409.76Z"/>
        <polygon class="cls-1" points="165.65 439.84 165.65 439.84 165.65 439.84 165.65 439.84"/>
        <path class="cls-1" d="M166.49,445.73l0,.09Z"/>
        <path class="cls-1" d="M166.82,447.25a.36.36,0,0,0,0,.11A.36.36,0,0,1,166.82,447.25Z"/>
        <path class="cls-1" d="M166.21,444.13l0,.14Z"/>
        <path class="cls-1" d="M178.89,411.5c.06.3.11.6.17.9C179.06,412.4,180.61,412.63,178.89,411.5Z"/>
        <path class="cls-1" d="M174.57,411.06c-3.4-1.94-5.85-3.53-6.12-4.33h0C168.72,407.53,171.17,409.11,174.57,411.06Z"/>
        <path class="cls-1" d="M179.06,412.4l.24,1.29h0l-.24-1.29L176.41,411Z"/>
        <path class="cls-1" d="M18.83,510.53c-.13-2.86-.22-5.76-.25-8.69C18.61,504.77,18.7,507.67,18.83,510.53Z"/>
        <path class="cls-1" d="M19,514.36c0,.15,0,.31,0,.46-.06-.94-.09-1.91-.14-2.86C19,512.76,19,513.57,19,514.36Z"/>
        <path class="cls-1" d="M18.53,497.92c0,.83,0,1.63,0,2.45,0-1,0-1.94,0-2.93C18.52,497.6,18.53,497.76,18.53,497.92Z"/>
        <path class="cls-1" d="M160.69,403.27c.26.66.49,1.33.73,2C161.18,404.6,161,403.93,160.69,403.27Z"/>
        <path class="cls-1" d="M161.87,406.49c.31.93.59,1.86.87,2.81C162.46,408.35,162.18,407.42,161.87,406.49Z"/>
        <path class="cls-1" d="M257.54,510.21l.73-.62Z"/>
        <path class="cls-1" d="M262.33,505.68c1.05.16,2.12.35,3.2.56C264.45,506,263.38,505.84,262.33,505.68Z"/>
        <path class="cls-1" d="M173.36,459.16l.17.08Z"/>
        <path class="cls-1" d="M271.09,468.18c-.45.75-.91,1.49-1.37,2.23C270.18,469.67,272,468.81,271.09,468.18Z"/>
        <path class="cls-1" d="M266.61,506.46l2.21.48Z"/>
        <path class="cls-1" d="M270.1,507.25c.69.17,1.38.34,2.07.53C271.48,507.59,270.79,507.42,270.1,507.25Z"/>
        <path class="cls-1" d="M167.19,448.77l.06.25Z"/>
        <path class="cls-1" d="M168.11,451.79c0,.06,0,.13.07.2S168.13,451.85,168.11,451.79Z"/>
        <path class="cls-1" d="M168.66,453.22c0,.09.07.17.11.25C168.73,453.39,168.7,453.31,168.66,453.22Z"/>
        <path class="cls-1" d="M167.65,450.39c0,.05,0,.1,0,.15S167.66,450.44,167.65,450.39Z"/>
        <path class="cls-1" d="M170.7,456.89l.14.18Z"/>
        <path class="cls-1" d="M169.94,455.76l.11.19Z"/>
        <path class="cls-1" d="M169.32,454.65a.47.47,0,0,0,.05.1A.47.47,0,0,1,169.32,454.65Z"/>
        <path class="cls-1" d="M308.88,683.4c-1.12.29-2.28.57-3.44.85,1.16-.28,2.32-.56,3.44-.85,5.54-1.77,10.83-3.67,15.93-5.67C319.71,679.73,314.42,681.63,308.88,683.4Z"/>
        <path class="cls-1" d="M98.08,141.26a49.49,49.49,0,0,0,25.82,9.31,38.13,38.13,0,0,0,15.34-2.09,38,38,0,0,0-10.5-11.37,47.94,47.94,0,0,0-12.26-6.46,48.69,48.69,0,0,0-13.58-2.8,38.18,38.18,0,0,0-15.33,2.06A38.36,38.36,0,0,0,98.08,141.26Z"/>
        <path class="cls-1" d="M165,81a54.06,54.06,0,0,0,8.2,12.26,41.58,41.58,0,0,0,12.87,10A41.54,41.54,0,0,0,186,87a54.24,54.24,0,0,0-4.73-14,54.94,54.94,0,0,0-8.21-12.25,42.06,42.06,0,0,0-12.86-10,42,42,0,0,0,.07,16.27A55.41,55.41,0,0,0,165,81Z"/>
        <path class="cls-1" d="M264.85,93.3A54,54,0,0,0,273,81a55,55,0,0,0,4.71-14,41.85,41.85,0,0,0,.06-16.27,42,42,0,0,0-12.85,10A54.94,54.94,0,0,0,256.75,73,54.24,54.24,0,0,0,252,87a41.35,41.35,0,0,0,0,16.28A41.58,41.58,0,0,0,264.85,93.3Z"/>
        <path class="cls-1" d="M335.15,127.85a48.61,48.61,0,0,0-13.58,2.8,47.78,47.78,0,0,0-12.26,6.46,38,38,0,0,0-10.5,11.37,38.08,38.08,0,0,0,15.33,2.09A49.49,49.49,0,0,0,340,141.26a38.36,38.36,0,0,0,10.51-11.35A38.2,38.2,0,0,0,335.15,127.85Z"/>
        <path class="cls-1" d="M3.25,221.51c0,1.37.1,2.62.17,3.77s.17,2.21.28,3.18.29,1.85.44,2.66a36.15,36.15,0,0,0,2,6.95,173.8,173.8,0,0,1-2.85-19.26C3.27,219.75,3.25,220.66,3.25,221.51Z"/>
        <path class="cls-1" d="M11.39,258.56c1,2.45,1.66,3.87,2,4.59-.89-2.34-1.72-4.69-2.5-7.07C11.08,256.87,11.23,257.69,11.39,258.56Z"/>
        <path class="cls-1" d="M284.43,690.06c-2.09.29-4.19.56-6.27.83,2.08-.27,4.18-.54,6.27-.83l.55-.13Z"/>
        <path class="cls-1" d="M323.22,315.66c27,17,50.41,35.9,69.14,56.61-5.23-10.42-17.8-21.93-31.13-31.75-13.4-10-27.41-18.51-35-26.31-4.5-2.34-1.75.05,0,1.8C327.73,317.57,328.54,318.58,323.22,315.66Z"/>
        <path class="cls-1" d="M249.84,694.32l22.06-2.63,6.26-.8-6.26.8Z"/>
        <path class="cls-1" d="M313.51,303a2.1,2.1,0,0,0,.84.15A2.1,2.1,0,0,1,313.51,303Z"/>
        <path class="cls-1" d="M440.76,172.93l.58-.06a.8.8,0,0,0,.15,0h0s-.06-.05.08,0h0v-.36c0-.39,0-.78,0-1.19,0-.82-.06-1.68-.12-2.58-.13-1.8-.34-3.77-.63-5.82-.55-4-1.38-8.55-2.19-12.15a65.78,65.78,0,0,0-2.56-9,4.78,4.78,0,0,0-.12.57c2.45,9.94,5.3,25.73,5.3,30.35,0,0-2,.24-5.61.52C436.83,173.18,438.59,173.11,440.76,172.93Z"/>
        <path class="cls-1" d="M273.51,508.15l2.05.6Z"/>
        <path class="cls-1" d="M377.19,476.64h0c.05,0,.1-.07.22.5h0C377.29,476.57,377.24,476.65,377.19,476.64Z"/>
        <path class="cls-1" d="M364.44,438.4l-.23-.06h0Z"/>
        <path class="cls-1" d="M374.11,460.85h0c0,.15.08.31.13.45C374.19,461.16,374.15,461,374.11,460.85Z"/>
        <path class="cls-1" d="M373.43,458.7c.07.35.12.6.16.78l-.16-.76Z"/>
        <path class="cls-1" d="M282.54,477.53c-.31.47-.62.94-.94,1.41h0a95.37,95.37,0,0,1-8.45,10.76,54.24,54.24,0,0,1-2.45,5c-.49.86-1,1.67-1.53,2.48,24.86.82,32.89,11.13,32.89,11.13s2.6-5.14,6.91-12.61c-6.54-5.07-20.57-12.71-24.78-14.73C283.27,480.19,282.23,478,282.54,477.53Z"/>
        <path class="cls-1" d="M373.7,459.92a.64.64,0,0,1,0-.1A.64.64,0,0,0,373.7,459.92Z"/>
        <path class="cls-1" d="M282.43,477.48c-.78-.35-1.62-.75-2.53-1.22.91.47,1.75.87,2.53,1.22Z"/>
        <path class="cls-1" d="M373.64,459.63c0,.1,0,.2.07.31h0C373.68,459.83,373.66,459.73,373.64,459.63Z"/>
        <path class="cls-1" d="M377.86,483.45c-.55-4.34-1.17-8.86-2-13.43C376.69,474.59,377.31,479.11,377.86,483.45Z"/>
        <path class="cls-1" d="M180.61,427.89c-.09,4.4-.52,9.57,1.12,12.12a129.21,129.21,0,0,0,15.61-15.74h0c-3.31-2.68-11.29-6.89-18-10.58A85.2,85.2,0,0,1,180.61,427.89Z"/>
        <path class="cls-1" d="M379.37,495.79c-.24-3.63-.54-6.69-.9-9.71.36,3,.66,6.08.9,9.71Z"/>
        <path class="cls-1" d="M395.49,631.17q-2.39,2.48-4.88,4.86Q393.1,633.65,395.49,631.17Z"/>
        <path class="cls-1" d="M380.09,645.3c1.32-1.07,2.59-2.17,3.87-3.27C382.69,643.13,381.4,644.23,380.09,645.3Z"/>
        <path class="cls-1" d="M385.53,640.7c1.61-1.42,3.19-2.88,4.74-4.35Q387.95,638.56,385.53,640.7Z"/>
        <path class="cls-1" d="M172.37,458.57l.15.12Z"/>
        <path class="cls-1" d="M241.56,692h0l-1.18.17Z"/>
        <path class="cls-1" d="M239.26,692h0l2.3.06h0Z"/>
        <path class="cls-1" d="M244.55,691.68c-.73.07-1.49.17-2.25.27.76-.1,1.52-.2,2.25-.27s1.23-.09,1.81-.11C245.78,691.59,245.17,691.63,244.55,691.68Z"/>
        <path class="cls-1" d="M233.88,693.31l-.84.2h0Z"/>
        <path class="cls-1" d="M235.39,692.94l1.71-.42Z"/>
        <path class="cls-1" d="M246,692.08q-1.72,0-3.33,0Q244.25,692.08,246,692.08Z"/>
        <path class="cls-1" d="M269.44,470.87c.1-.15.19-.31.28-.46-1.4-.89-2.87-1.83-4.44-2.87C266.8,468.86,268.16,469.94,269.44,470.87Z"/>
        <path class="cls-1" d="M237.65,512.83q2-1.83,3.82-3.74-1.86,1.91-3.82,3.74Z"/>
        <path class="cls-1" d="M171.61,457.93s0,0,0,0S171.6,457.92,171.61,457.93Z"/>
        <path class="cls-1" d="M33.67,557a1.09,1.09,0,0,1,.08.15,1,1,0,0,1,0-.1Z"/>
        <path class="cls-1" d="M97.53,644.52c3.79,2.2,7.58,4.47,11.53,6.5h0C105.11,649,101.32,646.72,97.53,644.52Z"/>
        <path class="cls-1" d="M67.1,616.24l.17.12-.1-.23A.41.41,0,0,1,67.1,616.24Z"/>
        <path class="cls-1" d="M362.31,658.77h0c-.1.41-.08.7.22.78.8.19,3.51-1.06,9.8-5.75l1.34-2.92Q368.27,654.95,362.31,658.77Z"/>
        <path class="cls-1" d="M362.4,658.54c.08-.21.15-.43.27-.69Q368.6,654,374.1,650h0q-5.5,4.08-11.43,7.9A4.84,4.84,0,0,0,362.4,658.54Z"/>
        <path class="cls-1" d="M374.15,649.91h0a3.32,3.32,0,0,0,1.35-.47A3.32,3.32,0,0,1,374.15,649.91Z"/>
        <path class="cls-1" d="M442.31,477c-.1-1.56-.36-3.1-.54-4.64s-.34-3.09-.64-4.62a166.8,166.8,0,0,0-3.95-18.19,164.42,164.42,0,0,0-6-17.48,181.71,181.71,0,0,0-17-32.07,220.12,220.12,0,0,0-16.57-21.71c26.14,30.85,42,65.63,44.23,104.36-.2,16.62-.44,31.51-1.64,45.51h0a33,33,0,0,1-.09,6.7c-.8,5.44-1.83,11-3.11,16.61h0c-3.84,19.42-10.92,38-24.22,58.28a145.49,145.49,0,0,1-14.4,18.47h0a167.59,167.59,0,0,1-22.7,21.17h0l.21-.1a69.22,69.22,0,0,0,7.19-4.81,89.14,89.14,0,0,0,15.69-14.88c-1.07.93-2.12,1.85-3.24,2.7a140.86,140.86,0,0,0,20.15-25.22,157.91,157.91,0,0,0,24.24-65.51,325.72,325.72,0,0,0,2.61-36.7c.17-6.17.22-12.34.27-18.56,0-1.55.1-3.1-.06-4.66Z"/>
        <path class="cls-1" d="M338.32,671.75h0a1.33,1.33,0,0,1-.2.24h0A1.33,1.33,0,0,0,338.32,671.75Z"/>
        <path class="cls-1" d="M293.53,687.83q-2.22.58-4.47,1.14,5-1.23,9.75-2.56C297.07,686.89,295.31,687.37,293.53,687.83Z"/>
        <path class="cls-1" d="M304.16,684.86q-2.58.78-5.22,1.51Q301.58,685.64,304.16,684.86Z"/>
        <path class="cls-1" d="M276.87,509.15l2.08.68Z"/>
        <path class="cls-1" d="M238.79,695.72l5.28-.69Z"/>
        <path class="cls-1" d="M304.21,684.61a2.88,2.88,0,0,0-.27.22l.18,0-.18,0A2.88,2.88,0,0,1,304.21,684.61Z"/>
        <path class="cls-1" d="M375.46,488.59l.15,2.22Z"/>
        <path class="cls-1" d="M292.93,515.72c.53.28,1,.56,1.53.84C294,516.28,293.46,516,292.93,515.72Z"/>
        <path class="cls-1" d="M375.84,496.76l0,1.52Z"/>
        <path class="cls-1" d="M375.7,492.73c0,.6.05,1.2.08,1.8C375.76,493.93,375.73,493.33,375.7,492.73Z"/>
        <path class="cls-1" d="M283.41,511.43c.82.32,1.63.65,2.42,1C285,512.08,284.23,511.75,283.41,511.43Z"/>
        <path class="cls-1" d="M375.82,504.81c0,.34,0,.68,0,1C375.8,505.49,375.81,505.15,375.82,504.81Z"/>
        <path class="cls-1" d="M375.88,500.78c0,.43,0,.86,0,1.28C375.87,501.64,375.88,501.21,375.88,500.78Z"/>
        <polygon class="cls-1" points="369.73 454.89 369.72 454.88 369.73 454.89 369.73 454.89"/>
        <path class="cls-1" d="M313.83,520.1c0-.14.07-.28.11-.42C313.9,519.82,313.87,520,313.83,520.1Z"/>
        <path class="cls-1" d="M316.89,512.83l-.3.6c.42-.84.85-1.67,1.28-2.5Z"/>
        <polygon class="cls-1" points="369.73 454.89 369.73 454.89 369.73 454.89 369.73 454.89 369.73 454.89 369.73 454.89"/>
        <path class="cls-1" d="M375.66,508.87l0,.44Z"/>
        <path class="cls-1" d="M375,483.52c.12,1.19.23,2.4.32,3.62C375.26,485.92,375.15,484.71,375,483.52Z"/>
        <path class="cls-1" d="M295,516.88l1.1.66Z"/>
        <path class="cls-1" d="M316.19,514.22c-.54,1.09-1.06,2.19-1.51,3.33l.15-.35C315.24,516.18,315.71,515.2,316.19,514.22Z"/>
        <path class="cls-1" d="M280.18,510.25c.73.26,1.46.52,2.17.79C281.64,510.77,280.91,510.51,280.18,510.25Z"/>
        <path class="cls-1" d="M374.5,521.39c.2-1.49.38-3,.53-4.44v0C374.87,518.45,374.7,519.91,374.5,521.39Z"/>
        <path class="cls-1" d="M298,518.78c-.48-.33-1-.67-1.51-1l.09.06C297.07,518.15,297.55,518.46,298,518.78Z"/>
        <path class="cls-1" d="M292.11,515.29l-1.1-.55.23.11Z"/>
        <path class="cls-1" d="M290.21,514.35c-1.08-.52-2.2-1-3.36-1.52l-.32-.14c1,.44,2,.89,3,1.35Z"/>
        <path d="M437.43,175.63a22.83,22.83,0,0,0,3.84-1.47C438.85,175,436.44,175.87,437.43,175.63Z"/>
        <path class="cls-2" d="M373.43,458.72l.16.76.05.26a.31.31,0,0,1,0,.08.64.64,0,0,0,0,.1v0c0-.11,0-.21-.07-.31Z"/>
        <path class="cls-2" d="M377.86,483.45c.18,1.45.35,2.87.52,4.28.34,2.8.66,5.5,1,8.06-.24-3.63-.54-6.69-.9-9.71-.09-.75-.18-1.5-.28-2.26-.3-2.27-.63-4.59-1-7.18h0c-.05,0-.09-.11-.18-1.26.06.44.12.85.18,1.26.05,0,.1-.07.22.5-.74-4.41-1.67-9.55-2.78-14.48-.14-.47-.27-.91-.39-1.36-.05-.14-.09-.3-.13-.45q.51,2.29,1,4.59c.3,1.53.57,3.06.83,4.58C376.69,474.59,377.31,479.11,377.86,483.45Z"/>
        <path class="cls-3" d="M452.35,477.48c-.12-2.56-.4-4.91-.66-7.32s-.6-4.81-1-7.22a173.64,173.64,0,0,0-19.38-55.87c-9.42-17.31-21.19-32.63-33.1-45.82a457.27,457.27,0,0,0-34.57-33.89c-6.44-6.27-2.45-3.84,2.5-.4s10.7,8,8.15,5.28a265.61,265.61,0,0,0-34.08-21.38,152.43,152.43,0,0,0-22.41-9.74,44.58,44.58,0,0,0-7.78-1.85h0c-1.08-.77-2.34-1.63-3.78-2.61-21.86-15-45.73-30.46-71.16-46.35l-19.36-12-9.89-6-5-3c-1.51-.9-2.81-1.75-4.18-2.71a74.63,74.63,0,0,1-7.74-6.21l-1.17-1.09a8.65,8.65,0,0,0-1-.9l-1.23-.91-2-1.48c-1.2-1-2.46-2-3.58-3.13s-2.24-2.26-3.35-3.41-2.09-2.42-3-3.74-1.83-2.64-2.72-4-1.65-2.77-2.32-4.23c-1.55-2.47-2.77-4.92-3.39-5.73-.31-.41-.49-.4-.45.21a15.29,15.29,0,0,0,1,3.84c3.18,5.91,6.16,9.94,7.1,12s-.12,2-3.64-1.79c-4.45-6.12-3.55-6.18-3.25-6.23s.29-.17-.22-1.19c-.25-.52-.69-1.25-1.24-2.38l-1-2-1.23-2.65c.4,1.36.71,2.76,1.22,4.1l.7,2,.83,2a64.54,64.54,0,0,1-4.09-9.55l-6-.66a67,67,0,0,0,2.77,7.88,63,63,0,0,0,19.08,24.86,31.23,31.23,0,0,0,2.55,1.9,26.65,26.65,0,0,1,3.08,2.38,80.55,80.55,0,0,0,9.71,7.4c1.64,1.07,3.22,2,4.89,2.93l4.86,2.77,8.36,4.75c9.75,5.55,13.41,7.64,5.14,2.88,3.17-1.18,69.48,44.16,70,41.58,9.05,4.89,15.8,8.41,20.52,10.75h0c-1.45.61-1.73,1.94-1.06,3.83l7.92,4c-.42.13-.57,1,2,3q-5.13-3.09-10.42-6.11L196.33,241a85,85,0,0,1-15.7-11.68A67.5,67.5,0,0,1,153,189L37.61,176.23v-1.4l113.88-11.68a2.12,2.12,0,0,0,1.37-.24l0,.11,6.28-.65a63.41,63.41,0,0,1,6-16.27l-4.34-5a2.1,2.1,0,0,0-.75-.79l-.08,0,0-.09L98.66,69.6l.42-.49,78.56,50.94.28.18,6.37,4.13c.17-.13.34-.26.52-.38a60.28,60.28,0,0,1,20-9.08l12.92-90.76h2.61l12.86,90.34a61.64,61.64,0,0,1,20.43,8.68c.31.23.62.46.94.68L339,69.11l.42.49-65.81,75.71a57.48,57.48,0,0,1,2.5,5.34l.42,1,.48,1,.69,1.38,1.37,2.76c.52,1.05,1,2.17,1.57,3.3l139.32,14.29,13.81-1c-1.7.49,1.66.74,4.45.65a14.37,14.37,0,0,1,3.11.07s0,.07,0,.12c2.07-.73,4.15-1.43,4.15-1.43l.07-1.27a62.9,62.9,0,0,0-1-10.84c-.52-3.44-1-6.76-1.51-9.9q-.57-4-.95-7.59c-.38,0-1.38-2.94-2.55-5.74s-2.45-5.14-2.73-4.43a177.2,177.2,0,0,0-40.65-72.53C386.79,50.16,377.4,39.37,367,31.69c-10.8-7.7-23.13-11-33.54-15.73,3.69,2.25-.86,1.24-2.53,1.11-4.21-1.51-6.59-2.24-7.8-2.72s-1.28-.64-.92-.71c.72-.13-19-4.38-23.73-5.42-4.72-.87-13.72-5.61-19.48-6.53C267.5-.24,257.88,1.6,243.41.49S210.63.46,195,1.69c-38,3-33-10-85.16,16.54C86,30.37,70.1,43.07,65.13,48.4c3.41-2.84,7-5.51,6-4.15C63,51,53,58.57,46,66.69s-8.29,19.78-14,29-13.74,15.85-17.83,26a196.86,196.86,0,0,0-9.74,31.18C2.08,163.46,0,176.69,2,184.69,4.6,195.11-.85,206.37.12,217a174.67,174.67,0,0,0,5.53,30.95,165.74,165.74,0,0,0,10.92,28.57A44.05,44.05,0,0,1,13.1,267c-.34-1.69,0-2.24.37-2.52a4,4,0,0,1,.39-.23,165.68,165.68,0,0,0,9.22,19.79c-.21-.25-.48-.61-.78-1-.73-1.09-1.61-2.44-1.89-2.35s-.14.44.12,1.42A35.56,35.56,0,0,0,22.22,287,193.09,193.09,0,0,0,44.1,316.88,88.65,88.65,0,0,1,30.25,296c.84,1.28,1.67,2.57,2.55,3.83a221,221,0,0,0,19.26,24c.63,1,1.48,2.27,2.38,3.54,2.48,3.5,5.41,7.15,4.77,7.55.9-1.41,6.22,3.72,13.39,10,.73.65,1.49,1.31,2.25,2a84.5,84.5,0,0,0-60.65,62C12.63,413,6.14,448.09,4.1,477.91-1.15,554.61,22.17,608.5,70.61,651.2c7.09,6.25,20.41,15.59,38.45,24.25a227.14,227.14,0,0,0,31.73,12.38c4.84,1.48,9.86,2.84,15,4a214.64,214.64,0,0,0,51.3,6c1.5,0,3,0,4.51-.08a241.43,241.43,0,0,0,24.48-1.75h0c1-.13,2.07-.23,3.1-.37a202.06,202.06,0,0,0,34.6-3.4c3.61-.7,7.15-1.46,10.61-2.25-2.09.29-4.19.56-6.27.83l-6.26.8-22.06,2.63,22.06-2.63,6.26-.8c2.08-.27,4.18-.54,6.27-.83l.55-.13-.55.13c4.13-.57,8.28-1.19,12.44-1.95,8.37-1.54,16.84-3.29,25.26-6.41,3.95-2.05,4.86-2.71,4.07-2.59a18.81,18.81,0,0,0-2.35.71c-1.12.38-2.5,1-4.08,1.37l-4.95,1.48c-1.7.44-3.4.84-4.92,1.2a29.22,29.22,0,0,1-5.72,1h0c1.58-.48,3.15-1,4.7-1.46-1.12.29-2.28.57-3.44.85,1.16-.28,2.32-.56,3.44-.85,5.54-1.77,10.83-3.67,15.93-5.67-5.1,2-10.39,3.9-15.93,5.67,3.94-1,7.6-2.08,10.84-3.2.54-.14,1.07-.29,1.58-.47s1.23-.5,1.82-.77c1.19-.47,2.31-.94,3.34-1.42,2.49-1.16,4.92-2.34,7.33-3.53h0q6.88-3,13.21-6.35h0c2.15.16,4.14,1.65,9.19-1.42,5.89-2.57,11.69-5.45,17.44-8.53-.7-1.66,5.7-6.64,12.91-12.71l2.76-2.3,2.73-2.4c1.86-1.56,3.63-3.2,5.31-4.76s3.26-3.06,4.65-4.43,2.66-2.57,3.61-3.6c-.13.32-.29.64-.45,1s-.36.72-.57,1.1c-.47.88-1,1.8-1.64,2.78S416.71,618.26,418,616a148.15,148.15,0,0,0,16.63-28.85,169.16,169.16,0,0,0,10.12-32c-.52.69-.93.56-1.2.19.5-2,1-3.75,1.38-5.43s.69-3.22,1-4.69c.68-2.94,1-5.57,1.56-8.25.95-5.36,1.84-10.93,3.11-19.71.82-8.26,1.3-16.81,1.67-25.62C452.43,487.07,452.85,482.65,452.35,477.48ZM313.51,303a2.1,2.1,0,0,0,.84.15A2.1,2.1,0,0,1,313.51,303ZM436,142.3a4.78,4.78,0,0,1,.12-.57,65.78,65.78,0,0,1,2.56,9c.81,3.6,1.64,8.1,2.19,12.15.29,2.05.5,4,.63,5.82.06.9.11,1.76.12,2.58,0,.41,0,.8,0,1.19v.36h0c-.14-.1-.05,0-.08,0h0a.8.8,0,0,1-.15,0l-.58.06c-2.17.18-3.93.25-5.06.24,3.57-.28,5.61-.47,5.61-.52C441.31,168,438.46,152.24,436,142.3Zm-96-1a49.49,49.49,0,0,1-25.83,9.31,38.08,38.08,0,0,1-15.33-2.09,38,38,0,0,1,10.5-11.37,47.78,47.78,0,0,1,12.26-6.46,48.61,48.61,0,0,1,13.58-2.8,38.2,38.2,0,0,1,15.33,2.06A38.36,38.36,0,0,1,340,141.26ZM252,87a54.24,54.24,0,0,1,4.73-14A54.94,54.94,0,0,1,265,60.76a42,42,0,0,1,12.85-10,41.85,41.85,0,0,1-.06,16.27A55,55,0,0,1,273,81a54,54,0,0,1-8.19,12.26,41.58,41.58,0,0,1-12.87,10A41.35,41.35,0,0,1,252,87ZM160.23,50.78a42.06,42.06,0,0,1,12.86,10A54.94,54.94,0,0,1,181.3,73,54.24,54.24,0,0,1,186,87a41.54,41.54,0,0,1,0,16.28,41.58,41.58,0,0,1-12.87-10A54.06,54.06,0,0,1,165,81a55.41,55.41,0,0,1-4.7-14A42,42,0,0,1,160.23,50.78ZM102.9,127.85a48.69,48.69,0,0,1,13.58,2.8,47.94,47.94,0,0,1,12.26,6.46,38,38,0,0,1,10.5,11.37,38.13,38.13,0,0,1-15.34,2.09,49.49,49.49,0,0,1-25.82-9.31,38.36,38.36,0,0,1-10.51-11.35A38.18,38.18,0,0,1,102.9,127.85ZM4.14,231.12c-.15-.81-.3-1.69-.44-2.66s-.2-2-.28-3.18-.15-2.4-.17-3.77c0-.85,0-1.76,0-2.7a173.8,173.8,0,0,0,2.85,19.26A36.15,36.15,0,0,1,4.14,231.12Zm7.25,27.44c-.16-.87-.31-1.69-.46-2.48.78,2.38,1.61,4.73,2.5,7.07C13.05,262.43,12.41,261,11.39,258.56ZM326.23,316c-1.77-1.75-4.52-4.14,0-1.8,7.61,7.8,21.62,16.32,35,26.31,13.33,9.82,25.9,21.33,31.13,31.75-18.73-20.71-42.15-39.57-69.14-56.61C328.54,318.58,327.73,317.57,326.23,316Zm47.88,144.84h0c0,.15.08.31.13.45.12.45.25.89.39,1.36,1.11,4.93,2,10.07,2.78,14.48h0c-.12-.57-.17-.49-.22-.5h0c.37,2.59.7,4.91,1,7.18.1.76.19,1.51.28,2.26.36,3,.66,6.08.9,9.71h0c-.33-2.56-.65-5.26-1-8.06-.17-1.41-.34-2.83-.52-4.28-.55-4.34-1.17-8.86-2-13.43-.26-1.52-.53-3-.83-4.58S374.45,462.38,374.11,460.85Zm21.38,170.32q-2.39,2.48-4.88,4.86Q393.1,633.65,395.49,631.17Zm-5.22,5.18c-1.55,1.47-3.13,2.93-4.74,4.35Q387.95,638.55,390.27,636.35ZM384,642c-1.28,1.1-2.55,2.2-3.87,3.27C381.4,644.23,382.69,643.13,384,642ZM373.71,459.94v0a.64.64,0,0,1,0-.1.31.31,0,0,0,0-.08l-.05-.26c0-.18-.09-.43-.16-.78v0l.21.91c0,.1,0,.2.07.31Zm-4-5.06c-1-.26-1.93-.5-2.89-.7C367.79,454.38,368.76,454.62,369.72,454.88Zm-5.28-16.48-.23-.06h0ZM309,495.66c-4.31,7.47-6.91,12.61-6.91,12.61s-8-10.31-32.89-11.13c.52-.81,1-1.62,1.53-2.48a54.24,54.24,0,0,0,2.45-5,95.37,95.37,0,0,0,8.45-10.76h0c.32-.47.63-.94.94-1.41-.31.47.73,2.66,1.65,3.4C288.4,483,302.43,490.59,309,495.66Zm-29.07-19.4c.91.47,1.75.87,2.53,1.22h0C281.65,477.13,280.81,476.73,279.9,476.26ZM179.06,412.4l.24,1.29h0l-.24-1.29L176.41,411l2.65,1.42c-.06-.3-.11-.6-.17-.9C180.61,412.63,179.06,412.4,179.06,412.4Zm-10.61-5.67c.27.8,2.72,2.39,6.12,4.33-3.4-1.95-5.85-3.53-6.12-4.33ZM18.58,501.84c0,2.93.12,5.83.25,8.69C18.7,507.67,18.61,504.77,18.58,501.84ZM207.86,671.69l-1.67.09-1.68,0-3.37,0-6.74-.1c-4.49,0-9-.45-13.53-.85A191.15,191.15,0,0,1,127,658.11a75.87,75.87,0,0,0-7.34-2.49,52.81,52.81,0,0,1-7.2-2.94c-1.13-.53-2.25-1.09-3.36-1.66-4-2-7.74-4.3-11.53-6.5,0,.05,0,.15.07.29-1.27-.7-2.48-1.52-3.69-2.33l-3.63-2.43-3.62-2.43c-1.2-.81-2.32-1.75-3.48-2.62-2.29-1.78-4.62-3.51-6.86-5.35l-6.53-5.76a178.13,178.13,0,0,1-23.27-26.25,155.41,155.41,0,0,1-15.68-29.11c-1.6-3.77-.84-4.17-1.7-6.76-1.55-5.26-2.73-9.86-3.88-14.61S23,537.54,21.81,531.7l.35-.11c-.42-1.77-.77-3.36-1-4.69,1,2.47-.82-6.07-2.14-12.08h0c0-.15,0-.31,0-.46-.05-.79-.07-1.6-.12-2.4q-.3-5.7-.34-11.59c0-.82,0-1.62,0-2.45,0-.16,0-.32,0-.48s0-.24,0-.35c0-2.57.07-5.17.16-7.8,0-.63,0-1.26.07-1.9.11-2.79.25-5.6.44-8.45,1.93-28.16,7.9-60.39,9.29-65.14.17-.49.31-1,.43-1.48a69.64,69.64,0,0,1,24.14-38,68.3,68.3,0,0,1,37.72-14.91c1.81-.14,3.63-.21,5.47-.21a69.42,69.42,0,0,1,63.11,40.88c.47,1,.91,2.1,1.33,3.17.26.66.49,1.33.73,2,.15.41.31.82.45,1.23.31.93.59,1.86.87,2.81,0,.15.1.31.14.46.31,1.09.58,2.18.84,3.28,0,0,0,0,0,.06a68.47,68.47,0,0,1,1.71,14h0c-1.2-8.7-4.28-17.34-8.25-20.61-5.45-4.48-26.2-9.05-26.2-9.05l0,.08c-7.63-1.45-15.3,3.24-17.81,11.31s1,16.71,7.94,20.39h0s32,18.18,32.47,18.35c2.65.93,5.74,2.62,8,1.13s3.55-4.77,4.11-8.85h0c.13,1.31.31,2.77.57,4.29l0,.14c.08.48.17,1,.26,1.46l0,.09c.1.47.2.95.31,1.43a.36.36,0,0,0,0,.11c.11.48.23.95.35,1.41l.06.25c.13.46.26.92.4,1.37,0,.05,0,.1,0,.15.13.42.27.84.42,1.25,0,.06,0,.13.07.2q.23.63.48,1.23c0,.09.07.17.11.25.17.41.35.8.55,1.18a.47.47,0,0,0,.05.1c.18.35.37.69.57,1l.11.19c.21.33.42.64.65.94l.14.18c.24.29.48.57.73.82,0,0,0,0,0,0a6.44,6.44,0,0,0,.76.64l.15.12a5.79,5.79,0,0,0,.84.47l.17.08a5.93,5.93,0,0,0,.93.3c3.7.74,9.84-2.88,14.7-6.35a15.79,15.79,0,0,0,2.31-1.59c.33-.28.65-.58,1-.87,2.4-1.87,4-3.3,4-3.3l-.17-.09a149.84,149.84,0,0,0,15.59-17,172.31,172.31,0,0,0,33.35-72.53c2.53-13,5.76-17.05,6.71-18,1.3.28,6.1,1.88,14.68,10.91A119.14,119.14,0,0,1,277,363.42c3,9.65,16.52,57.78-2.11,96.73a8.71,8.71,0,0,1-.67,2q-1.15,2.36-2.34,4.69c-.27.45-.56.89-.83,1.34.94.63-.91,1.49-1.37,2.23-.09.15-.18.31-.28.46-1.32,2.1-2.65,4.18-4,6.22-2.33,3.6-4.5,7.2-6.55,10.54a100.34,100.34,0,0,1-7,9.54,153.24,153.24,0,0,1-10.44,11.92q-1.86,1.91-3.82,3.74c-1,.89-1.89,1.79-2.88,2.64a111.14,111.14,0,0,1-21,14.62h0a1,1,0,0,0,.59,1.86,60.6,60.6,0,0,0,13.23-3.3l3.19-1.27c1.06-.44,2.08-.95,3.12-1.43,2.08-1,4.09-2.05,6.07-3.21a114.48,114.48,0,0,0,11.48-7.59c1-.76,2-1.54,3-2.33s2.1-1.73,3.12-2.62l.73-.62q1.89-1.68,3.67-3.49l.39-.42c1.05.16,2.12.35,3.2.56l1.08.22,2.21.48,1.28.31c.69.17,1.38.34,2.07.53l1.34.37,2.05.6,1.31.4,2.08.68,1.23.42c.73.26,1.46.52,2.17.79l1.06.39c.82.32,1.63.65,2.42,1l.7.28.32.14c1.16.49,2.28,1,3.36,1.52h0l.79.39,1.1.55h0l.82.43h0c.53.28,1,.56,1.53.84h0l.54.32h0l1.1.66h0l.38.24c.52.33,1,.67,1.51,1a31.19,31.19,0,0,0,5.95,3.3c0,.21.06.42.1.63a29.84,29.84,0,0,0,7.18,14.52,1,1,0,0,0,1.8-.76c-.33-5.15-.5-9.82.27-14a19.71,19.71,0,0,1,.53-2.33h0c0-.14.07-.28.11-.42h0c.22-.72.47-1.43.74-2.13h0c.45-1.14,1-2.24,1.51-3.33.13-.26.26-.53.4-.79l.3-.6,1-1.9c.21-.46.48-.92.72-1.38l.5-1c.57-1,1.21-2.16,1.89-3.37,3.6-6.33,8.74-14.88,14.66-23.35,19.13-27.37,28.21-28.14,28.23-28.14,1,.12,2,.3,3,.51s1.93.44,2.89.7h0a179,179,0,0,1,3.95,18.35c-.06-1.68-.11-3.36-.2-5,.12-.81.28-.76.5-.14.5,5.07.84,10.25,1,15.46.12,1.19.23,2.4.32,3.62,0,.48.07,1,.11,1.45l.15,2.22.09,1.92c0,.6.06,1.2.08,1.8l.06,2.23,0,1.52c0,.83,0,1.67,0,2.5,0,.43,0,.86,0,1.28,0,.91,0,1.83-.05,2.75,0,.34,0,.68,0,1,0,1-.07,2-.12,3.05l0,.44c-.14,2.51-.33,5.06-.6,7.64-.15,1.47-.33,2.95-.53,4.44-.3,4.12-.71,8.25-1.24,12.43-.59,4-1.39,8-2.32,12,0,.17-.05.35-.08.52-.44,2.75-1.14,5.42-1.74,8.11-.32,1.34-.57,2.7-.94,4l-1.11,4c.29-.79.59-1.59.89-2.39-.37,1.34-.73,2.69-1.11,4.06-.42,1.15-.74,2.32-1.25,3.44.56-1.66,1-3.4,1.47-5.11-1.46,4.28-3.37,8.33-5.05,12.45-1,2-1.95,4-2.92,6-.49,1-1,2-1.47,3L356,586.73a113.4,113.4,0,0,1-13.38,19.42c-1.12,1.42-2.25,2.82-3.41,4.19a166.88,166.88,0,0,1-27.78,26c-8.53,6.64-21.9,13.74-36,18.42-3.47,1.43-7,2.34-10.52,3.47L259.71,660l-2.55.83-2.53.68c-3.34.92-6.56,1.89-9.61,2.91l-.19.07-.06,0c.93-.16,1.87-.31,2.77-.5a9.63,9.63,0,0,1-3.32,1c-.76.66-1.56,1.36-2.39,2.11.45-.05.91-.1,1.36-.18-.6.21-1.18.37-1.76.54-.93.26-1.84.51-2.73.78-1.45.43-2.85.87-4.2,1.33l-6.62.8c-2.21.26-4.41.57-6.65.64ZM130.09,418.15c-4.35-.26-11,5.6-10.33-.29a10.71,10.71,0,0,1,11.86-9.42c5.87.69,12.53,8,11.85,13.88S133.49,418.36,130.09,418.15ZM363.64,579.58c.12-.26.25-.54.38-.8-.45,1.09-.87,2.14-1.32,3.24ZM237.1,692.52l-1.71.42Zm2.16-.54h0l2.3.06h0l-1.18.17,1.18-.17Zm3.38.07q1.61,0,3.33,0Q244.25,692.08,242.64,692.05Zm1.91-.37c-.73.07-1.49.17-2.25.27.76-.1,1.52-.2,2.25-.27s1.23-.09,1.81-.11C245.78,691.59,245.17,691.63,244.55,691.68Zm-10.67,1.63-.84.2h0Zm4.91,2.41,5.28-.69ZM289.06,689q2.25-.56,4.47-1.14c1.78-.46,3.54-.94,5.28-1.42Q294,687.74,289.06,689Zm9.88-2.6q2.64-.74,5.22-1.51Q301.58,685.64,298.94,686.37Zm5-1.54a2.88,2.88,0,0,1,.27-.22,2.88,2.88,0,0,0-.27.22l.18,0Zm34.38-13.08h0a1.33,1.33,0,0,1-.2.24h0A1.33,1.33,0,0,0,338.32,671.75ZM374.1,650q-5.5,4.08-11.43,7.9c-.12.26-.19.48-.27.69a4.84,4.84,0,0,1,.27-.69Q368.6,654,374.1,650Zm-1.77,3.85c-6.29,4.69-9,5.94-9.8,5.75-.3-.08-.32-.37-.22-.78h0q6-3.82,11.36-7.89Zm1.82-3.89a3.32,3.32,0,0,0,1.35-.47,3.32,3.32,0,0,1-1.35.47Zm68.61-163.62c-.05,6.22-.1,12.39-.27,18.56a325.72,325.72,0,0,1-2.61,36.7,157.91,157.91,0,0,1-24.24,65.51,140.86,140.86,0,0,1-20.15,25.22c1.12-.85,2.17-1.77,3.24-2.7A89.14,89.14,0,0,1,383,644.46a69.22,69.22,0,0,1-7.19,4.81l-.21.1h0a167.59,167.59,0,0,0,22.7-21.17h0a145.49,145.49,0,0,0,14.4-18.47c13.3-20.31,20.38-38.86,24.22-58.28h0c1.28-5.62,2.31-11.17,3.11-16.61a33,33,0,0,0,.09-6.7h0c1.2-14,1.44-28.89,1.64-45.51-2.19-38.73-18.09-73.51-44.23-104.36A220.12,220.12,0,0,1,414.16,400a181.71,181.71,0,0,1,17,32.07,164.42,164.42,0,0,1,6,17.48,166.8,166.8,0,0,1,3.95,18.19c.3,1.53.43,3.08.64,4.62s.44,3.08.54,4.64l.39,4.67C442.86,483.19,442.73,484.74,442.76,486.29Z"/>
        <path class="cls-2" d="M365.6,567.53c.51-1.12.83-2.29,1.25-3.44.38-1.37.74-2.72,1.11-4.06-.3.8-.6,1.6-.89,2.39C366.57,564.13,366.16,565.87,365.6,567.53Z"/>
        <path class="cls-2" d="M363.64,579.58,362.7,582c.45-1.1.87-2.15,1.32-3.24C363.89,579,363.76,579.32,363.64,579.58Z"/>
        <path class="cls-4" d="M366.83,454.18c1,.2,1.93.44,2.89.7"/>
        <path d="M377.19,476.64c-.06-.41-.12-.82-.18-1.26C377.1,476.53,377.14,476.64,377.19,476.64Z"/>
        <path class="cls-5" d="M291.29,653.63l-2.77,1.26L285.8,656c-1.79.75-3.53,1.53-5.25,2.33l-5.07,2.46-5.1,2.12c14.8-4.64,29.76-10.67,39.48-17.79-3,1.57-6,3.18-9.1,4.66Z"/>
        <path class="cls-5" d="M376,549.14c.39-2.6.77-5.19,1.15-7.75a165.65,165.65,0,0,1-8.46,31,138.94,138.94,0,0,1-14.48,28.38,141.48,141.48,0,0,1-19.72,23.94c-3.48,3.76-7.46,6.8-11.14,10.16-.92.86-1.92,1.57-2.89,2.32l-2.93,2.23c-2,1.45-3.83,3-5.81,4.42l-1.86,1.24c1-.54,2-1,3-1.61l2.88-1.84,5.72-3.71,1.42-.93c.47-.33.9-.7,1.35-1l2.68-2.11,5.32-4.22,4.92-4.67a65,65,0,0,0,4.75-4.79,118.38,118.38,0,0,0,8.54-10.37,141.7,141.7,0,0,1-25.92,27.8c-2.91,2.46-5.95,4.65-8.94,7a125.86,125.86,0,0,0,33.75-29.72,139.94,139.94,0,0,0,17.57-31.69A156.48,156.48,0,0,0,376,549.14Z"/>
        <path class="cls-5" d="M227.88,670.34l6.62-.8c1.35-.46,2.75-.9,4.2-1.33.89-.27,1.8-.52,2.73-.78.58-.17,1.16-.33,1.76-.54-.45.08-.91.13-1.36.18.83-.75,1.63-1.45,2.39-2.11a9.63,9.63,0,0,0,3.32-1c-.9.19-1.84.34-2.77.5l.06,0,.19-.07c3-1,6.27-2,9.61-2.91l2.53-.68,2.55-.83,5.18-1.67c3.49-1.13,7.05-2,10.52-3.47,14.09-4.68,27.46-11.78,36-18.42a166.88,166.88,0,0,0,27.78-26c1.16-1.37,2.29-2.77,3.41-4.19A113.4,113.4,0,0,0,356,586.73l1.66-2.89c.52-1,1-2,1.47-3,1-2,1.95-4,2.92-6,1.68-4.12,3.59-8.17,5.05-12.45l1.11-4c.37-1.33.62-2.69.94-4,.6-2.69,1.3-5.36,1.74-8.11,0-.17.06-.35.08-.52.93-4,1.73-7.95,2.32-12,.53-4.18.94-8.31,1.24-12.43.2-1.48.37-2.94.52-4.4v0c.27-2.58.46-5.13.6-7.64l0-.44c0-1,.09-2,.12-3.05,0-.33,0-.67,0-1,0-.92,0-1.84.05-2.75,0-.42,0-.85,0-1.28,0-.83,0-1.67,0-2.5l0-1.52-.06-2.23c0-.6,0-1.2-.08-1.8l-.09-1.92-.15-2.22c0-.48-.07-1-.11-1.45-.09-1.22-.2-2.43-.32-3.62-.21-5.21-.55-10.39-1-15.46-.22-.62-.38-.67-.5.14.09,1.68.14,3.36.2,5a179,179,0,0,0-3.95-18.35h0c-1-.26-1.93-.5-2.89-.7s-2-.39-3-.51c0,0-9.1.77-28.23,28.14-5.92,8.47-11.06,17-14.66,23.35-.68,1.21-1.32,2.34-1.89,3.37l-.5,1c-.24.46-.51.92-.72,1.38-.43.83-.86,1.66-1.28,2.5-.14.26-.27.53-.4.79-.48,1-.95,2-1.36,3l-.15.35h0c-.27.7-.52,1.41-.74,2.13h0c0,.14-.07.28-.11.42h0a19.71,19.71,0,0,0-.53,2.33c-.77,4.22-.6,8.89-.27,14a1,1,0,0,1-1.8.76,29.84,29.84,0,0,1-7.18-14.52c0-.21-.06-.42-.1-.63a31.19,31.19,0,0,1-5.95-3.3c-.45-.32-.93-.63-1.42-.94l-.09-.06-.38-.24h0l-1.1-.66h0l-.54-.32h0c-.5-.28-1-.56-1.53-.84h0l-.82-.43h0l-.87-.44-.23-.11-.79-.39h0l-.66-.31c-1-.46-2-.91-3-1.35l-.7-.28c-.79-.33-1.6-.66-2.42-1l-1.06-.39c-.71-.27-1.44-.53-2.17-.79l-1.23-.42-2.08-.68-1.31-.4-2.05-.6-1.34-.37c-.69-.19-1.38-.36-2.07-.53l-1.28-.31-2.21-.48-1.08-.22c-1.08-.21-2.15-.4-3.2-.56l-.39.42q-1.79,1.81-3.67,3.49l-.73.62c-1,.89-2.06,1.77-3.12,2.62s-2,1.57-3,2.33a114.48,114.48,0,0,1-11.48,7.59c-2,1.16-4,2.25-6.07,3.21-1,.48-2.06,1-3.12,1.43l-3.19,1.27a60.6,60.6,0,0,1-13.23,3.3,1,1,0,0,1-.59-1.86h0a111.14,111.14,0,0,0,21-14.62c1-.85,1.93-1.75,2.88-2.64h0q2-1.83,3.82-3.74a153.24,153.24,0,0,0,10.44-11.92,100.34,100.34,0,0,0,7-9.54c2.05-3.34,4.22-6.94,6.55-10.54,1.32-2,2.65-4.12,4-6.22-1.28-.93-2.64-2-4.16-3.33,1.57,1,3,2,4.44,2.87.46-.74.92-1.48,1.37-2.23.27-.45.56-.89.83-1.34q1.18-2.34,2.34-4.69a8.71,8.71,0,0,0,.67-2c18.63-38.95,5.14-87.08,2.11-96.73a119.14,119.14,0,0,0-10.41-12.7c-8.58-9-13.38-10.63-14.68-10.91-.95,1-4.18,5-6.71,18a172.31,172.31,0,0,1-33.35,72.53,149.84,149.84,0,0,1-15.59,17l.17.09s-1.62,1.43-4,3.3c-.33.29-.65.59-1,.87a15.79,15.79,0,0,1-2.31,1.59c-4.86,3.47-11,7.09-14.7,6.35a5.93,5.93,0,0,1-.93-.3l-.17-.08a5.79,5.79,0,0,1-.84-.47l-.15-.12a6.44,6.44,0,0,1-.76-.64s0,0,0,0c-.25-.25-.49-.53-.73-.82l-.14-.18c-.23-.3-.44-.61-.65-.94l-.11-.19c-.2-.32-.39-.66-.57-1a.47.47,0,0,1-.05-.1c-.2-.38-.38-.77-.55-1.18,0-.08-.07-.16-.11-.25q-.25-.6-.48-1.23c0-.07-.05-.14-.07-.2-.15-.41-.29-.83-.42-1.25,0-.05,0-.1,0-.15-.14-.45-.27-.91-.4-1.37l-.06-.25c-.12-.46-.24-.93-.35-1.41a.36.36,0,0,1,0-.11c-.11-.48-.21-1-.31-1.43l0-.09c-.09-.49-.18-1-.26-1.46l0-.14c-.26-1.52-.44-3-.57-4.29h0c-.56,4.08-1.87,7.34-4.11,8.85s-5.32-.2-8-1.13c-.48-.17-32.47-18.35-32.47-18.35h0c-6.93-3.68-10.45-12.31-7.94-20.39S123.34,396.05,131,397.5l0-.08s20.75,4.57,26.2,9.05c4,3.27,7.05,11.91,8.25,20.61a68.47,68.47,0,0,0-1.71-14s0,0,0-.06c-.26-1.1-.53-2.19-.84-3.28,0-.15-.1-.31-.14-.46-.28-.95-.56-1.88-.87-2.81-.14-.41-.3-.82-.45-1.23-.24-.66-.47-1.33-.73-2-.42-1.07-.86-2.12-1.33-3.17a69.42,69.42,0,0,0-63.11-40.88c-1.84,0-3.66.07-5.47.21a68.3,68.3,0,0,0-37.72,14.91,69.64,69.64,0,0,0-24.14,38c-.12.5-.26,1-.43,1.48-1.39,4.75-7.36,37-9.29,65.14-.19,2.85-.33,5.66-.44,8.45,0,.64-.05,1.27-.07,1.9-.09,2.63-.15,5.23-.16,7.8,0,.11,0,.23,0,.35,0,1,0,1.95,0,2.93q0,5.89.34,11.59c.05.95.08,1.92.14,2.86h0c1.32,6,3.12,14.55,2.14,12.08.21,1.33.56,2.92,1,4.69l-.35.11c1.21,5.84,2.28,10.74,3.45,15.46s2.33,9.35,3.88,14.61c.86,2.59.1,3,1.7,6.76a155.41,155.41,0,0,0,15.68,29.11,178.13,178.13,0,0,0,23.27,26.25l6.53,5.76c2.24,1.84,4.57,3.57,6.86,5.35,1.16.87,2.28,1.81,3.48,2.62l3.62,2.43,3.63,2.43c1.21.81,2.42,1.63,3.69,2.33-.09-.14-.12-.24-.07-.29,3.79,2.2,7.58,4.47,11.53,6.5h0c1.11.57,2.23,1.13,3.36,1.66a52.81,52.81,0,0,0,7.2,2.94,75.87,75.87,0,0,1,7.34,2.49,191.15,191.15,0,0,0,53.91,12.65c4.52.4,9,.88,13.53.85l6.74.1,3.37,0,1.68,0,1.67-.09,13.37-.71C223.47,670.91,225.67,670.6,227.88,670.34ZM33.67,557l0,0a1,1,0,0,0,0,.1A1.09,1.09,0,0,0,33.67,557ZM67.1,616.24a.41.41,0,0,0,.07-.11l.1.23ZM83.6,425.57h0s-34,18.18-34.53,18.35c-2.82.93-6.11,2.62-8.48,1.12-8.86-5.59-4.14-35.44,4.61-42.21,5.8-4.48,27.88-9,27.88-9l0,.07a16.88,16.88,0,0,1,10.5,31.71Zm26.57.12c-.66,3.12-4.59,5.25-8.78,4.75s-7-3.42-6.37-6.53,4.6-5.25,8.78-4.76S110.84,422.57,110.17,425.69Z"/>
        <path class="cls-5" d="M312.3,646.54l-3.38,1.8-6.83,3.55-7.07,3-3.56,1.45a34.69,34.69,0,0,1-3.61,1.31c-2.41.86-4.7,1.77-6.92,2.73l-3.28,1.47c-1.08.51-2.16,1-3.24,1.39l-12.88,5.27c5.25-1.44,10.51-2.78,15.76-4.38,3.62-1.35,7.11-2.7,10.51-4,.85-.34,1.69-.65,2.53-1l2.45-1.19,4.82-2.39,4.71-2.39c1.53-.86,3-1.83,4.52-2.74l4.43-2.79a42.93,42.93,0,0,0,4.33-2.95l-1.62,1C313.42,646,312.85,646.23,312.3,646.54Z"/>
        <ellipse class="cls-3" cx="102.6" cy="424.8" rx="7.67" ry="5.71" transform="translate(-0.52 0.12) rotate(-0.07)"/>
        <path class="cls-3" d="M73.1,393.86l0-.07s-22.08,4.57-27.88,9c-8.75,6.77-13.47,36.62-4.61,42.21,2.37,1.5,5.66-.19,8.48-1.12.51-.17,34.53-18.35,34.53-18.35h0a16.88,16.88,0,0,0-10.5-31.71Zm11,20.23c-.65,5.59-5.55-1.28-9.63-2-3.19-.55-13.94,6.54-13.29.94s8.41-10.91,14-10.26A10.19,10.19,0,0,1,84.07,414.09Z"/>
        <path class="cls-5" d="M75.14,402.78c-5.58-.65-13.34,4.67-14,10.26s10.1-1.49,13.29-.94c4.08.71,9,7.58,9.63,2A10.19,10.19,0,0,0,75.14,402.78Z"/>
        <path class="cls-5" d="M143.47,422.32c.68-5.88-6-13.19-11.85-13.88a10.71,10.71,0,0,0-11.86,9.42c-.69,5.89,6,0,10.33.29C133.49,418.36,142.78,428.21,143.47,422.32Z"/>
      </g>
    </g>
  </g>
</svg>
